<svg width="20" height="20" viewBox="0 0 20 20" fill="none" xmlns="http://www.w3.org/2000/svg">
<g id="Icon/Approval">
<path id="Vector" fill-rule="evenodd" clip-rule="evenodd" d="M10.2109 3.33203C6.41398 3.33203 3.33594 6.41007 3.33594 10.207C3.33594 14.004 6.41398 17.082 10.2109 17.082C14.0079 17.082 17.0859 14.004 17.0859 10.207C17.0859 6.41007 14.0079 3.33203 10.2109 3.33203ZM2.08594 10.207C2.08594 5.71972 5.72362 2.08203 10.2109 2.08203C14.6983 2.08203 18.3359 5.71972 18.3359 10.207C18.3359 14.6943 14.6983 18.332 10.2109 18.332C5.72362 18.332 2.08594 14.6943 2.08594 10.207ZM14.0149 7.95474C14.259 8.19882 14.259 8.59455 14.0149 8.83863L9.87702 12.9766C9.75616 13.0974 9.59108 13.1635 9.42021 13.1594C9.24934 13.1554 9.08758 13.0815 8.97261 12.955L6.38641 10.1102C6.15421 9.8548 6.17304 9.45952 6.42845 9.22733C6.68386 8.99513 7.07914 9.01396 7.31133 9.26937L9.45662 11.6292L13.1311 7.95474C13.3751 7.71067 13.7709 7.71067 14.0149 7.95474Z" fill="#2A9AD6"/>
</g>
</svg>
