<svg width="120" height="120" viewBox="0 0 120 120" fill="none" xmlns="http://www.w3.org/2000/svg">
<g id="box 1">
<rect width="120" height="120" fill="white"/>
<ellipse id="Ellipse 1551" cx="60" cy="104" rx="60" ry="11" fill="#EAF5FB"/>
<g id="Vector">
<path d="M47.5 79L25.8339 67.3946V84.0983L58.0469 101.756H61.9531L94.1661 84.0983V67.3946L72.8678 79.0693L60 68.2102L47.5 79Z" fill="white"/>
<path d="M98.8818 45.655L109.428 35.1273C109.863 34.6939 110.067 34.0808 109.98 33.4738C109.894 32.8668 109.526 32.3352 108.987 32.0397L96.3084 25.0899C95.3631 24.572 94.176 24.9171 93.6564 25.8607C93.1376 26.8051 93.4825 27.9902 94.4285 28.5081L104.826 34.2072L95.7751 43.2415L63.2227 25.3976L72.2727 16.3634L81.4211 21.3786C82.3664 21.8965 83.5543 21.5522 84.0731 20.6078C84.5927 19.6642 84.2471 18.4784 83.301 17.9605L72.8678 12.2407C72.1064 11.8234 71.1603 11.9582 70.5469 12.5713L60 23.0998L49.4531 12.5713C48.8389 11.9582 47.8929 11.8241 47.1322 12.2407L11.013 32.0397C10.4744 32.3352 10.1059 32.866 10.0197 33.4738C9.9327 34.0808 10.1372 34.6939 10.572 35.1273L21.1182 45.655L10.572 56.1821C10.1372 56.6162 9.9327 57.2285 10.0197 57.8363C10.1059 58.4433 10.4744 58.9749 11.013 59.2697L21.9277 65.2529V85.2514C21.9277 85.9635 22.316 86.6184 22.9409 86.9612L59.0601 106.759C59.353 106.92 59.6765 107 60 107C60.3235 107 60.647 106.92 60.9399 106.759L97.0591 86.9612C97.684 86.6184 98.0723 85.9635 98.0723 85.2514V65.2529L108.987 59.2704C109.526 58.9749 109.894 58.4433 109.98 57.8363C110.067 57.2293 109.863 56.6162 109.428 56.1828L98.8818 45.655ZM60 63.2285L27.9389 45.6543L60 28.0793L92.0611 45.6543L60 63.2285ZM47.7281 16.3634L56.7773 25.3976L24.2249 43.2415L15.1749 34.2072L47.7281 16.3634ZM24.2264 48.0678L56.7789 65.9117L47.7281 74.9467L15.1749 57.1029L24.2264 48.0678ZM94.1661 84.0983L61.9531 101.756V81.8248C61.9531 80.7479 61.0788 79.8751 60 79.8751C58.9212 79.8751 58.0469 80.7479 58.0469 81.8248V101.756L25.8339 84.0983V67.3946L47.1322 79.0693C47.4275 79.2308 47.751 79.31 48.0714 79.31C48.5772 79.31 49.0777 79.1135 49.4531 78.7388L60 68.2102L70.5469 78.7388C70.9223 79.1143 71.4228 79.31 71.9286 79.31C72.249 79.31 72.5725 79.2308 72.8678 79.0693L94.1661 67.3946V84.0983ZM72.2727 74.9467L63.2219 65.9109L95.7744 48.0678L104.826 57.1021L72.2727 74.9467Z" fill="#55AEDE"/>
<path d="M89.0627 25.2925C89.5762 25.2925 90.0782 25.0838 90.4437 24.7206C90.8068 24.358 91.0159 23.8554 91.0159 23.3428C91.0159 22.8295 90.8068 22.3268 90.4437 21.9643C90.0805 21.601 89.5762 21.3931 89.0627 21.3931C88.547 21.3931 88.045 21.601 87.6818 21.9643C87.3164 22.3268 87.1096 22.8295 87.1096 23.3428C87.1096 23.8554 87.3164 24.358 87.6818 24.7206C88.045 25.0838 88.5493 25.2925 89.0627 25.2925Z" fill="#55AEDE"/>
<path d="M60 73.4022C59.4865 73.4022 58.9822 73.6101 58.6191 73.9734C58.2559 74.3374 58.0469 74.8386 58.0469 75.3519C58.0469 75.866 58.2559 76.3671 58.6191 76.7319C58.9822 77.0945 59.4865 77.3016 60 77.3016C60.5135 77.3016 61.0178 77.0945 61.3809 76.7319C61.7441 76.3671 61.9531 75.866 61.9531 75.3519C61.9531 74.8386 61.7441 74.3374 61.3809 73.9734C61.0178 73.6101 60.5135 73.4022 60 73.4022Z" fill="#55AEDE"/>
</g>
</g>
</svg>
