<svg xmlns="http://www.w3.org/2000/svg" width="20" height="20" viewBox="0 0 20 20" fill="none">
    <path
        d="M8.96713 4.14177L3.14494 14.2254C3.03977 14.4075 2.98439 14.614 2.98438 14.8243C2.98436 15.0346 3.0397 15.2412 3.14483 15.4233C3.24997 15.6054 3.40119 15.7566 3.58331 15.8618C3.76542 15.9669 3.972 16.0223 4.18229 16.0222H15.8257C16.036 16.0223 16.2426 15.9669 16.4247 15.8618C16.6068 15.7566 16.758 15.6054 16.8632 15.4233C16.9683 15.2412 17.0237 15.0346 17.0236 14.8243C17.0236 14.614 16.9682 14.4075 16.8631 14.2254L11.0415 4.14177C10.9364 3.95971 10.7852 3.80853 10.6031 3.70342C10.4211 3.59831 10.2145 3.54297 10.0043 3.54297C9.79409 3.54297 9.58756 3.59831 9.4055 3.70342C9.22344 3.80853 9.07225 3.95971 8.96713 4.14177Z"
        fill="#EA4343"
    />
    <path
        d="M10.075 7.25H9.92313C9.54921 7.25 9.24609 7.55312 9.24609 7.92703V11.1631C9.24609 11.537 9.54921 11.8402 9.92313 11.8402H10.075C10.4489 11.8402 10.752 11.537 10.752 11.1631V7.92703C10.752 7.55312 10.4489 7.25 10.075 7.25Z"
        fill="#FFF7ED"
    />
    <path
        d="M9.99906 14.4044C10.4149 14.4044 10.752 14.0673 10.752 13.6514C10.752 13.2356 10.4149 12.8984 9.99906 12.8984C9.58321 12.8984 9.24609 13.2356 9.24609 13.6514C9.24609 14.0673 9.58321 14.4044 9.99906 14.4044Z"
        fill="#FFF7ED"
    />
</svg>