<svg width="16" height="16" viewBox="0 0 16 16" fill="none" xmlns="http://www.w3.org/2000/svg">
<g id="Icon/comment">
<path id="Vector" d="M3.99967 9.34968H9.21634V8.34967H3.99967V9.34968ZM3.99967 7.18301H11.9997V6.18301H3.99967V7.18301ZM3.99967 5.01634H11.9997V4.01634H3.99967V5.01634ZM1.33301 14.6663V2.33301C1.33301 2.06634 1.43301 1.83301 1.63301 1.63301C1.83301 1.43301 2.06634 1.33301 2.33301 1.33301H13.6663C13.933 1.33301 14.1663 1.43301 14.3663 1.63301C14.5663 1.83301 14.6663 2.06634 14.6663 2.33301V10.9997C14.6663 11.2663 14.5663 11.4997 14.3663 11.6997C14.1663 11.8997 13.933 11.9997 13.6663 11.9997H3.99967L1.33301 14.6663ZM3.56634 10.9997H13.6663V2.33301H2.33301V12.333L3.56634 10.9997Z" fill="#2A9AD6"/>
</g>
</svg>
