<svg width="20" height="20" viewBox="0 0 20 20" fill="none" xmlns="http://www.w3.org/2000/svg">
<g id="Icon/trash-2">
<path id="Vector (Stroke)" fill-rule="evenodd" clip-rule="evenodd" d="M8.33333 2.29199C8.05707 2.29199 7.79211 2.40174 7.59676 2.59709C7.40141 2.79244 7.29167 3.05739 7.29167 3.33366V4.37533H12.7083V3.33366C12.7083 3.05739 12.5986 2.79244 12.4032 2.59709C12.2079 2.40174 11.9429 2.29199 11.6667 2.29199H8.33333ZM13.9583 4.37533V3.33366C13.9583 2.72587 13.7169 2.14298 13.2871 1.71321C12.8573 1.28343 12.2745 1.04199 11.6667 1.04199H8.33333C7.72555 1.04199 7.14265 1.28343 6.71288 1.71321C6.28311 2.14298 6.04167 2.72587 6.04167 3.33366V4.37533H2.5C2.15482 4.37533 1.875 4.65515 1.875 5.00033C1.875 5.3455 2.15482 5.62533 2.5 5.62533H3.54167V16.667C3.54167 17.2748 3.78311 17.8577 4.21288 18.2874C4.64265 18.7172 5.22555 18.9587 5.83333 18.9587H14.1667C14.7745 18.9587 15.3573 18.7172 15.7871 18.2874C16.2169 17.8577 16.4583 17.2748 16.4583 16.667V5.62533H17.5C17.8452 5.62533 18.125 5.3455 18.125 5.00033C18.125 4.65515 17.8452 4.37533 17.5 4.37533H13.9583ZM4.79167 5.62533V16.667C4.79167 16.9433 4.90141 17.2082 5.09676 17.4036C5.29211 17.5989 5.55707 17.7087 5.83333 17.7087H14.1667C14.4429 17.7087 14.7079 17.5989 14.9032 17.4036C15.0986 17.2082 15.2083 16.9433 15.2083 16.667V5.62533H4.79167ZM8.33333 8.54199C8.67851 8.54199 8.95833 8.82182 8.95833 9.16699V14.167C8.95833 14.5122 8.67851 14.792 8.33333 14.792C7.98816 14.792 7.70833 14.5122 7.70833 14.167V9.16699C7.70833 8.82182 7.98816 8.54199 8.33333 8.54199ZM11.6667 8.54199C12.0118 8.54199 12.2917 8.82182 12.2917 9.16699V14.167C12.2917 14.5122 12.0118 14.792 11.6667 14.792C11.3215 14.792 11.0417 14.5122 11.0417 14.167V9.16699C11.0417 8.82182 11.3215 8.54199 11.6667 8.54199Z" fill="#EA4343"/>
</g>
</svg>
