<svg width="17" height="16" viewBox="0 0 17 16" fill="none" xmlns="http://www.w3.org/2000/svg">
<g id="Icon/download">
<path id="Vector" fill-rule="evenodd" clip-rule="evenodd" d="M8.5 1.5C8.77614 1.5 9 1.72386 9 2V8.79289L11.4798 6.31311C11.675 6.11785 11.9916 6.11785 12.1869 6.31311C12.3821 6.50838 12.3821 6.82496 12.1869 7.02022L8.85355 10.3536C8.65829 10.5488 8.34171 10.5488 8.14645 10.3536L4.81311 7.02022C4.61785 6.82496 4.61785 6.50838 4.81311 6.31311C5.00838 6.11785 5.32496 6.11785 5.52022 6.31311L8 8.79289V2C8 1.72386 8.22386 1.5 8.5 1.5ZM2.5 9.5C2.77614 9.5 3 9.72386 3 10V12.6667C3 12.8877 3.0878 13.0996 3.24408 13.2559C3.40036 13.4122 3.61232 13.5 3.83333 13.5H13.1667C13.3877 13.5 13.5996 13.4122 13.7559 13.2559C13.9122 13.0996 14 12.8877 14 12.6667V10C14 9.72386 14.2239 9.5 14.5 9.5C14.7761 9.5 15 9.72386 15 10V12.6667C15 13.1529 14.8068 13.6192 14.463 13.963C14.1192 14.3068 13.6529 14.5 13.1667 14.5H3.83333C3.3471 14.5 2.88079 14.3068 2.53697 13.963C2.19315 13.6192 2 13.1529 2 12.6667V10C2 9.72386 2.22386 9.5 2.5 9.5Z" fill="#2A9AD6"/>
</g>
</svg>
