<svg width="16" height="16" viewBox="0 0 16 16" fill="none" xmlns="http://www.w3.org/2000/svg">
<g id="Icon/edit-3">
<path id="Vector" fill-rule="evenodd" clip-rule="evenodd" d="M12 2.41895C11.7575 2.41895 11.525 2.51526 11.3536 2.68671L3.11816 10.9221L2.6872 12.646L4.41105 12.215L12.6465 3.97961C12.7314 3.89471 12.7987 3.79393 12.8446 3.68301C12.8906 3.5721 12.9142 3.45321 12.9142 3.33316C12.9142 3.2131 12.8906 3.09422 12.8446 2.9833C12.7987 2.87239 12.7314 2.77161 12.6465 2.68671C12.5616 2.60182 12.4608 2.53448 12.3499 2.48854C12.2389 2.44259 12.1201 2.41895 12 2.41895ZM10.6465 1.97961C11.0054 1.62062 11.4923 1.41895 12 1.41895C12.2514 1.41895 12.5003 1.46846 12.7325 1.56466C12.9648 1.66085 13.1758 1.80185 13.3536 1.97961C13.5313 2.15736 13.6723 2.36838 13.7685 2.60062C13.8647 2.83286 13.9142 3.08178 13.9142 3.33316C13.9142 3.58454 13.8647 3.83345 13.7685 4.0657C13.6723 4.29794 13.5313 4.50896 13.3536 4.68671L5.02023 13.02C4.95615 13.0841 4.87586 13.1296 4.78795 13.1516L2.12128 13.8182C1.95089 13.8608 1.77065 13.8109 1.64646 13.6867C1.52227 13.5625 1.47234 13.3823 1.51494 13.2119L2.18161 10.5452C2.20359 10.4573 2.24904 10.377 2.31312 10.3129L10.6465 1.97961ZM7.50001 13.3332C7.50001 13.057 7.72387 12.8332 8.00001 12.8332H14C14.2762 12.8332 14.5 13.057 14.5 13.3332C14.5 13.6093 14.2762 13.8332 14 13.8332H8.00001C7.72387 13.8332 7.50001 13.6093 7.50001 13.3332Z" fill="#2A9AD6"/>
</g>
</svg>
