<svg width="16" height="16" viewBox="0 0 16 16" fill="none" xmlns="http://www.w3.org/2000/svg">
<g clip-path="url(#clip0_4954_219041)">
<path fill-rule="evenodd" clip-rule="evenodd" d="M0.120324 1.20007C0.299999 0.990376 0.615645 0.96604 0.825339 1.14571L15.162 13.43C15.3717 13.6097 15.3961 13.9253 15.2164 14.135C15.0367 14.3447 14.7211 14.369 14.5114 14.1894L12.3974 12.378C12.36 12.4445 12.3069 12.5033 12.2391 12.5485C11.0156 13.3646 9.53322 13.8123 8.00884 13.8342L8.00169 13.8343C5.49354 13.8343 3.5439 12.5798 2.24387 11.3664C1.59134 10.7574 1.09214 10.1495 0.755655 9.69364C0.587132 9.46532 0.458658 9.27407 0.371468 9.13845C0.327854 9.0706 0.294513 9.01658 0.271601 8.9787C0.260144 8.95975 0.251289 8.94483 0.245056 8.93423L0.237675 8.92158L0.235462 8.91775L0.234726 8.91647C0.234726 8.91647 0.234237 8.91562 0.668359 8.66755L0.234237 8.91562C0.143653 8.75709 0.146676 8.5618 0.242125 8.40616C1.08592 7.03022 2.24359 5.82804 3.63763 4.87229L0.174679 1.90508C-0.0350147 1.72541 -0.0593504 1.40976 0.120324 1.20007ZM4.41348 5.53706C4.38624 5.56729 4.35485 5.59465 4.31947 5.61829C3.07276 6.45129 2.03392 7.48968 1.25932 8.66942C1.33383 8.78259 1.43438 8.92928 1.56023 9.09978C1.86957 9.5189 2.32871 10.0777 2.92618 10.6353C4.12549 11.7547 5.84128 12.833 7.9981 12.8342C9.32392 12.8146 10.6025 12.4283 11.6511 11.7385L9.83219 10.18C9.81119 10.2117 9.78622 10.2415 9.75729 10.2687C9.52538 10.4865 9.24936 10.6578 8.94741 10.7755C8.64549 10.8933 8.32167 10.9558 7.9948 10.9609C7.66794 10.9659 7.3421 10.9134 7.03615 10.8053C6.7302 10.6971 6.44816 10.5348 6.20834 10.3249C5.96838 10.115 5.77491 9.86105 5.6434 9.57617C5.51175 9.29098 5.44592 8.98261 5.45222 8.67025C5.45851 8.35791 5.53672 8.05224 5.67939 7.77207C5.81198 7.51168 5.99693 7.27971 6.22138 7.08615L4.41348 5.53706ZM6.98269 7.73847C6.9601 7.76738 6.93395 7.79424 6.90432 7.8184C6.75884 7.93702 6.64661 8.07639 6.5705 8.22585C6.49455 8.375 6.45519 8.5328 6.45201 8.69041C6.44883 8.84799 6.4818 9.00642 6.55133 9.15705C6.621 9.30798 6.72696 9.44995 6.86684 9.57235C7.00686 9.69486 7.17726 9.79451 7.36938 9.86241C7.5615 9.93031 7.76915 9.96423 7.97937 9.96098C8.18958 9.95774 8.39543 9.91744 8.58417 9.84385C8.77289 9.77027 8.93847 9.66582 9.07276 9.53972C9.07469 9.5379 9.07664 9.53611 9.07859 9.53433L6.98269 7.73847ZM8.00066 4.50089C7.56321 4.49999 7.12735 4.5436 6.70202 4.63072C6.43149 4.68613 6.16727 4.51174 6.11186 4.24121C6.05645 3.97068 6.23084 3.70646 6.50137 3.65106C6.99363 3.55023 7.49724 3.49989 8.00218 3.50089C10.5101 3.50105 12.4596 4.7554 13.7595 5.96869C14.412 6.57771 14.9112 7.18557 15.2477 7.64145C15.4163 7.86978 15.5447 8.06102 15.6319 8.19665C15.6755 8.26449 15.7089 8.31851 15.7318 8.35639C15.7386 8.36764 15.7445 8.37747 15.7494 8.38582C15.7528 8.39153 15.7558 8.39656 15.7583 8.40087L15.7691 8.41948L15.7679 8.41734L15.7687 8.41862C15.7687 8.41862 15.7691 8.41948 15.335 8.66755L15.002 8.66754C14.7444 8.66619 15.002 8.66754 14.7444 8.66619C14.6699 8.55295 14.5692 8.40607 14.4432 8.23531C14.1338 7.81619 13.6747 7.25739 13.0772 6.69974C11.8772 5.57978 10.1602 4.50089 8.00169 4.50089L8.00066 4.50089ZM14.7444 8.66619C14.3946 9.20105 13.9899 9.70839 13.5346 10.1818C13.3432 10.3808 13.3494 10.6974 13.5484 10.8888C13.7475 11.0802 14.064 11.074 14.2554 10.875C14.8326 10.2748 15.3376 9.62243 15.7617 8.9282C15.8567 8.77266 15.8596 8.57773 15.7691 8.41948L15.335 8.66755L15.002 8.66754L14.7444 8.66619C14.7444 8.66619 14.8 8.75264 14.7907 8.7374C14.7766 8.71544 14.7612 8.69167 14.7444 8.66619Z" fill="#848484"/>
</g>
<defs>
<clipPath id="clip0_4954_219041">
<rect width="16" height="16" fill="white"/>
</clipPath>
</defs>
</svg>
