<svg width="16" height="16" viewBox="0 0 16 16" fill="none" xmlns="http://www.w3.org/2000/svg">
<path fill-rule="evenodd" clip-rule="evenodd" d="M1.2577 8.00065C1.33233 8.11408 1.4333 8.26145 1.55984 8.43289C1.86918 8.85201 2.32832 9.41081 2.92579 9.96846C4.12576 11.0884 5.84279 12.1673 8.0013 12.1673C10.1598 12.1673 11.8768 11.0884 13.0768 9.96846C13.6743 9.41081 14.1334 8.85201 14.4428 8.43289C14.5693 8.26145 14.6703 8.11408 14.7449 8.00065C14.6703 7.88722 14.5693 7.73985 14.4428 7.56841C14.1334 7.1493 13.6743 6.59049 13.0768 6.03285C11.8768 4.91288 10.1598 3.83398 8.0013 3.83398C5.84279 3.83398 4.12576 4.91288 2.92579 6.03285C2.32832 6.59049 1.86918 7.1493 1.55984 7.56841C1.4333 7.73985 1.33233 7.88722 1.2577 8.00065ZM15.3346 8.00065C15.7688 7.75258 15.7687 7.7524 15.7685 7.75221L15.7675 7.75045L15.7653 7.74662L15.7579 7.73397C15.7517 7.72336 15.7429 7.70844 15.7314 7.6895C15.7085 7.65161 15.6751 7.5976 15.6315 7.52975C15.5443 7.39412 15.4159 7.20288 15.2473 6.97456C14.9109 6.51867 14.4116 5.91081 13.7591 5.30179C12.4591 4.08842 10.5095 2.83398 8.0013 2.83398C5.49315 2.83398 3.54351 4.08842 2.24348 5.30179C1.59095 5.91081 1.09175 6.51867 0.755265 6.97456C0.586741 7.20288 0.458268 7.39412 0.371077 7.52975C0.327464 7.5976 0.294123 7.65161 0.271211 7.6895C0.259753 7.70844 0.250899 7.72336 0.244666 7.73397L0.237285 7.74662L0.235072 7.75045L0.234336 7.75173C0.234224 7.75192 0.233847 7.75258 0.667969 8.00065L0.233847 7.75258C0.146009 7.9063 0.146009 8.095 0.233847 8.24872L0.667969 8.00065C0.233847 8.24872 0.233735 8.24853 0.233847 8.24872L0.235072 8.25086L0.237285 8.25469L0.244666 8.26733C0.250899 8.27794 0.259753 8.29286 0.271211 8.3118C0.294123 8.34969 0.327464 8.40371 0.371077 8.47155C0.458268 8.60718 0.586741 8.79842 0.755265 9.02674C1.09175 9.48263 1.59095 10.0905 2.24348 10.6995C3.54351 11.9129 5.49315 13.1673 8.0013 13.1673C10.5095 13.1673 12.4591 11.9129 13.7591 10.6995C14.4116 10.0905 14.9109 9.48263 15.2473 9.02674C15.4159 8.79842 15.5443 8.60718 15.6315 8.47155C15.6751 8.40371 15.7085 8.34969 15.7314 8.3118C15.7429 8.29286 15.7517 8.27794 15.7579 8.26733L15.7653 8.25469L15.7675 8.25086L15.7683 8.24957C15.7684 8.24938 15.7688 8.24872 15.3346 8.00065ZM15.3346 8.00065L15.7688 8.24872C15.8566 8.095 15.8564 7.90592 15.7685 7.75221L15.3346 8.00065ZM8.0013 6.50065C7.17287 6.50065 6.5013 7.17222 6.5013 8.00065C6.5013 8.82908 7.17287 9.50065 8.0013 9.50065C8.82973 9.50065 9.5013 8.82908 9.5013 8.00065C9.5013 7.17222 8.82973 6.50065 8.0013 6.50065ZM5.5013 8.00065C5.5013 6.61994 6.62059 5.50065 8.0013 5.50065C9.38201 5.50065 10.5013 6.61994 10.5013 8.00065C10.5013 9.38136 9.38201 10.5007 8.0013 10.5007C6.62059 10.5007 5.5013 9.38136 5.5013 8.00065Z" fill="#848484"/>
</svg>
