<svg width="20" height="20" viewBox="0 0 20 20" fill="none" xmlns="http://www.w3.org/2000/svg">
<g id="Icon/eye">
<path id="Vector" fill-rule="evenodd" clip-rule="evenodd" d="M1.57066 9.99984C1.66395 10.1416 1.79016 10.3258 1.94833 10.5401C2.33502 11.064 2.90893 11.7625 3.65578 12.4596C5.15574 13.8596 7.30202 15.2082 10.0002 15.2082C12.6983 15.2082 14.8446 13.8596 16.3445 12.4596C17.0914 11.7625 17.6653 11.064 18.052 10.5401C18.2102 10.3258 18.3364 10.1416 18.4297 9.99984C18.3364 9.85805 18.2102 9.67384 18.052 9.45954C17.6653 8.93565 17.0914 8.23714 16.3445 7.54008C14.8446 6.14012 12.6983 4.7915 10.0002 4.7915C7.30202 4.7915 5.15574 6.14012 3.65578 7.54008C2.90893 8.23714 2.33502 8.93565 1.94833 9.45954C1.79016 9.67384 1.66395 9.85805 1.57066 9.99984ZM19.1668 9.99984C19.7095 9.68975 19.7094 9.68953 19.7092 9.68928L19.7079 9.68708L19.7052 9.68229L19.696 9.66649C19.6882 9.65323 19.6771 9.63458 19.6628 9.6109C19.6341 9.56354 19.5925 9.49602 19.5379 9.41121C19.429 9.24168 19.2684 9.00262 19.0577 8.71722C18.6371 8.14736 18.0131 7.38754 17.1974 6.62626C15.5724 5.10955 13.1354 3.5415 10.0002 3.5415C6.86497 3.5415 4.42792 5.10955 2.80288 6.62626C1.98723 7.38754 1.36323 8.14736 0.942616 8.71722C0.731962 9.00262 0.57137 9.24168 0.462382 9.41121C0.407865 9.49602 0.366188 9.56354 0.337549 9.6109C0.323227 9.63458 0.312158 9.65323 0.304368 9.66649L0.295141 9.68229L0.292375 9.68708L0.291455 9.68868C0.291315 9.68893 0.290844 9.68975 0.833496 9.99984L0.290844 9.68975C0.181047 9.8819 0.181047 10.1178 0.290844 10.3099L0.833496 9.99984C0.290844 10.3099 0.290704 10.3097 0.290844 10.3099L0.292375 10.3126L0.295141 10.3174L0.304368 10.3332C0.312158 10.3464 0.323227 10.3651 0.337549 10.3888C0.366188 10.4361 0.407865 10.5037 0.462382 10.5885C0.57137 10.758 0.731962 10.9971 0.942616 11.2825C1.36323 11.8523 1.98723 12.6121 2.80288 13.3734C4.42792 14.8901 6.86497 16.4582 10.0002 16.4582C13.1354 16.4582 15.5724 14.8901 17.1974 13.3734C18.0131 12.6121 18.6371 11.8523 19.0577 11.2825C19.2684 10.9971 19.429 10.758 19.5379 10.5885C19.5925 10.5037 19.6341 10.4361 19.6628 10.3888C19.6771 10.3651 19.6882 10.3464 19.696 10.3332L19.7052 10.3174L19.7079 10.3126L19.7089 10.311C19.709 10.3107 19.7095 10.3099 19.1668 9.99984ZM19.1668 9.99984L19.7095 10.3099C19.8193 10.1178 19.819 9.88143 19.7092 9.68928L19.1668 9.99984ZM10.0002 8.12484C8.96463 8.12484 8.12516 8.9643 8.12516 9.99984C8.12516 11.0354 8.96463 11.8748 10.0002 11.8748C11.0357 11.8748 11.8752 11.0354 11.8752 9.99984C11.8752 8.9643 11.0357 8.12484 10.0002 8.12484ZM6.87516 9.99984C6.87516 8.27395 8.27427 6.87484 10.0002 6.87484C11.7261 6.87484 13.1252 8.27395 13.1252 9.99984C13.1252 11.7257 11.7261 13.1248 10.0002 13.1248C8.27427 13.1248 6.87516 11.7257 6.87516 9.99984Z" fill="#2A9AD6"/>
</g>
</svg>
