<svg xmlns="http://www.w3.org/2000/svg" width="30" height="36" viewBox="0 0 30 36" fill="none">
  <path fill-rule="evenodd" clip-rule="evenodd" d="M1.75942 1.42543C2.61896 0.565893 3.78475 0.0830078 5.00033 0.0830078H16.667C16.9985 0.0830078 17.3165 0.214704 17.5509 0.449124L29.2175 12.1158C29.452 12.3502 29.5837 12.6682 29.5837 12.9997V31.333C29.5837 32.5486 29.1008 33.7144 28.2412 34.5739C27.3817 35.4335 26.2159 35.9163 25.0003 35.9163H5.00033C3.78475 35.9163 2.61896 35.4335 1.75942 34.5739C0.899878 33.7144 0.416992 32.5486 0.416992 31.333V4.66634C0.416992 3.45077 0.899877 2.28498 1.75942 1.42543ZM5.00033 2.58301C4.44779 2.58301 3.91789 2.8025 3.52719 3.1932C3.13649 3.5839 2.91699 4.11381 2.91699 4.66634V31.333C2.91699 31.8855 3.13649 32.4154 3.52719 32.8061C3.91789 33.1968 4.44779 33.4163 5.00033 33.4163H25.0003C25.5529 33.4163 26.0828 33.1968 26.4735 32.8061C26.8642 32.4154 27.0837 31.8855 27.0837 31.333V14.2497H16.667C15.9766 14.2497 15.417 13.69 15.417 12.9997V2.58301H5.00033ZM17.917 4.35077L25.3159 11.7497H17.917V4.35077Z" fill="#848484"/>
</svg>