<svg width="16" height="16" viewBox="0 0 16 16" fill="none" xmlns="http://www.w3.org/2000/svg">
<g id="Icon/infor" clip-path="url(#clip0_2830_410736)">
<path id="Vector" fill-rule="evenodd" clip-rule="evenodd" d="M7.99967 1.83301C4.59392 1.83301 1.83301 4.59392 1.83301 7.99967C1.83301 11.4054 4.59392 14.1663 7.99967 14.1663C11.4054 14.1663 14.1663 11.4054 14.1663 7.99967C14.1663 4.59392 11.4054 1.83301 7.99967 1.83301ZM0.833008 7.99967C0.833008 4.04163 4.04163 0.833008 7.99967 0.833008C11.9577 0.833008 15.1663 4.04163 15.1663 7.99967C15.1663 11.9577 11.9577 15.1663 7.99967 15.1663C4.04163 15.1663 0.833008 11.9577 0.833008 7.99967ZM7.49967 5.33301C7.49967 5.05687 7.72353 4.83301 7.99967 4.83301H8.00634C8.28248 4.83301 8.50634 5.05687 8.50634 5.33301C8.50634 5.60915 8.28248 5.83301 8.00634 5.83301H7.99967C7.72353 5.83301 7.49967 5.60915 7.49967 5.33301ZM7.99967 7.49967C8.27582 7.49967 8.49967 7.72353 8.49967 7.99967V10.6663C8.49967 10.9425 8.27582 11.1663 7.99967 11.1663C7.72353 11.1663 7.49967 10.9425 7.49967 10.6663V7.99967C7.49967 7.72353 7.72353 7.49967 7.99967 7.49967Z" fill="#2A9AD6"/>
</g>
<defs>
<clipPath id="clip0_2830_410736">
<rect width="16" height="16" fill="white"/>
</clipPath>
</defs>
</svg>
