<svg width="16" height="16" viewBox="0 0 16 16" fill="none" xmlns="http://www.w3.org/2000/svg">
<g id="Icon/infor" clip-path="url(#clip0_10537_188958)">
<path id="Vector" fill-rule="evenodd" clip-rule="evenodd" d="M8.0026 1.83325C4.59685 1.83325 1.83594 4.59416 1.83594 7.99992C1.83594 11.4057 4.59685 14.1666 8.0026 14.1666C11.4084 14.1666 14.1693 11.4057 14.1693 7.99992C14.1693 4.59416 11.4084 1.83325 8.0026 1.83325ZM0.835938 7.99992C0.835938 4.04188 4.04456 0.833252 8.0026 0.833252C11.9606 0.833252 15.1693 4.04188 15.1693 7.99992C15.1693 11.958 11.9606 15.1666 8.0026 15.1666C4.04456 15.1666 0.835938 11.958 0.835938 7.99992ZM7.5026 5.33325C7.5026 5.05711 7.72646 4.83325 8.0026 4.83325H8.00927C8.28541 4.83325 8.50927 5.05711 8.50927 5.33325C8.50927 5.60939 8.28541 5.83325 8.00927 5.83325H8.0026C7.72646 5.83325 7.5026 5.60939 7.5026 5.33325ZM8.0026 7.49992C8.27875 7.49992 8.5026 7.72378 8.5026 7.99992V10.6666C8.5026 10.9427 8.27875 11.1666 8.0026 11.1666C7.72646 11.1666 7.5026 10.9427 7.5026 10.6666V7.99992C7.5026 7.72378 7.72646 7.49992 8.0026 7.49992Z" fill="#848484"/>
</g>
<defs>
<clipPath id="clip0_10537_188958">
<rect width="16" height="16" fill="white"/>
</clipPath>
</defs>
</svg>
