<svg xmlns="http://www.w3.org/2000/svg" width="20" height="20" viewBox="0 0 20 20" fill="none">
  <path fill-rule="evenodd" clip-rule="evenodd" d="M5.83464 4.79297C5.55837 4.79297 5.29342 4.90272 5.09807 5.09807C4.90272 5.29342 4.79297 5.55837 4.79297 5.83464V15.0013C4.79297 15.2776 4.90272 15.5425 5.09807 15.7379C5.29342 15.9332 5.55837 16.043 5.83464 16.043H15.0013C15.2776 16.043 15.5425 15.9332 15.7379 15.7379C15.9332 15.5425 16.043 15.2776 16.043 15.0013V11.668C16.043 11.3228 16.3228 11.043 16.668 11.043C17.0131 11.043 17.293 11.3228 17.293 11.668V15.0013C17.293 15.6091 17.0515 16.192 16.6218 16.6218C16.192 17.0515 15.6091 17.293 15.0013 17.293H5.83464C5.22685 17.293 4.64395 17.0515 4.21418 16.6218C3.78441 16.192 3.54297 15.6091 3.54297 15.0013V5.83464C3.54297 5.22685 3.78441 4.64395 4.21418 4.21418C4.64395 3.78441 5.22685 3.54297 5.83464 3.54297H9.58463C9.92981 3.54297 10.2096 3.82279 10.2096 4.16797C10.2096 4.51315 9.92981 4.79297 9.58463 4.79297H5.83464ZM12.7096 4.16797C12.7096 3.82279 12.9895 3.54297 13.3346 3.54297H16.668C17.0131 3.54297 17.293 3.82279 17.293 4.16797V7.91797C17.293 8.26315 17.0131 8.54297 16.668 8.54297C16.3228 8.54297 16.043 8.26315 16.043 7.91797V5.67685L10.4432 11.2766C10.1992 11.5207 9.80344 11.5207 9.55936 11.2766C9.31528 11.0325 9.31528 10.6368 9.55936 10.3927L15.1591 4.79297H13.3346C12.9895 4.79297 12.7096 4.51315 12.7096 4.16797Z" fill="#2A9AD6"/>
</svg>