<svg xmlns="http://www.w3.org/2000/svg" width="20" height="20" viewBox="0 0 20 20" fill="none">
  <path fill-rule="evenodd" clip-rule="evenodd" d="M4.01558 6.06974L10.1029 10.3308L16.1901 6.06974C16.0783 5.80947 15.8185 5.625 15.5195 5.625H4.6862C4.38722 5.625 4.12745 5.80947 4.01558 6.06974ZM16.2487 7.55458L10.4613 11.6058C10.2461 11.7564 9.95965 11.7564 9.74445 11.6058L3.95703 7.55458V14.4792C3.95703 14.8788 4.28658 15.2083 4.6862 15.2083H15.5195C15.9191 15.2083 16.2487 14.8788 16.2487 14.4792V7.55458ZM2.70703 6.35417C2.70703 5.2642 3.59623 4.375 4.6862 4.375H15.5195C16.6095 4.375 17.4987 5.2642 17.4987 6.35417V14.4792C17.4987 15.5691 16.6095 16.4583 15.5195 16.4583H4.6862C3.59623 16.4583 2.70703 15.5691 2.70703 14.4792V6.35417Z" fill="#2A9AD6"/>
</svg>