<svg xmlns="http://www.w3.org/2000/svg" width="24" height="24" viewBox="0 0 24 24" fill="none">
  <path fill-rule="evenodd" clip-rule="evenodd" d="M10.5 11.5C10.5 10.6716 11.1716 10 12 10C12.8284 10 13.5 10.6716 13.5 11.5C13.5 12.3284 12.8284 13 12 13C11.1716 13 10.5 12.3284 10.5 11.5Z" fill="#848484"/>
  <path fill-rule="evenodd" clip-rule="evenodd" d="M10.5 5C10.5 4.17157 11.1716 3.5 12 3.5C12.8284 3.5 13.5 4.17157 13.5 5C13.5 5.82843 12.8284 6.5 12 6.5C11.1716 6.5 10.5 5.82843 10.5 5Z" fill="#848484"/>
  <path fill-rule="evenodd" clip-rule="evenodd" d="M10.5 18.5C10.5 17.6716 11.1716 17 12 17C12.8284 17 13.5 17.6716 13.5 18.5C13.5 19.3284 12.8284 20 12 20C11.1716 20 10.5 19.3284 10.5 18.5Z" fill="#848484"/>
</svg>