<svg width="16" height="16" viewBox="0 0 16 16" fill="none" xmlns="http://www.w3.org/2000/svg">
<g id="phone" clip-path="url(#clip0_10399_417300)">
<path id="Vector" d="M14.665 11.2797V13.2797C14.6657 13.4654 14.6277 13.6492 14.5533 13.8193C14.479 13.9894 14.3699 14.1421 14.233 14.2676C14.0962 14.3932 13.9347 14.4887 13.7588 14.5482C13.5829 14.6077 13.3966 14.6298 13.2117 14.6131C11.1602 14.3902 9.18966 13.6892 7.45833 12.5664C5.84755 11.5428 4.48189 10.1772 3.45833 8.56641C2.33165 6.82721 1.63049 4.84707 1.41166 2.78641C1.395 2.60205 1.41691 2.41625 1.47599 2.24082C1.53508 2.0654 1.63004 1.9042 1.75484 1.76749C1.87964 1.63077 2.03153 1.52155 2.20086 1.44675C2.37018 1.37196 2.55322 1.33325 2.73833 1.33307H4.73833C5.06187 1.32989 5.37552 1.44446 5.62084 1.65543C5.86615 1.8664 6.02638 2.15937 6.07166 2.47974C6.15608 3.11978 6.31263 3.74822 6.53833 4.35307C6.62802 4.59169 6.64744 4.85102 6.59427 5.10033C6.5411 5.34964 6.41757 5.57848 6.23833 5.75974L5.39166 6.60641C6.3407 8.27544 7.72263 9.65737 9.39166 10.6064L10.2383 9.75974C10.4196 9.5805 10.6484 9.45697 10.8977 9.4038C11.1471 9.35063 11.4064 9.37004 11.645 9.45974C12.2498 9.68544 12.8783 9.84199 13.5183 9.92641C13.8422 9.97209 14.1379 10.1352 14.3494 10.3847C14.5608 10.6343 14.6731 10.9528 14.665 11.2797Z" stroke="#848484" stroke-width="1.5" stroke-linecap="round" stroke-linejoin="round"/>
</g>
<defs>
<clipPath id="clip0_10399_417300">
<rect width="16" height="16" fill="white"/>
</clipPath>
</defs>
</svg>
