<svg width="16" height="16" viewBox="0 0 16 16" fill="none" xmlns="http://www.w3.org/2000/svg">
<g id="Icon/plus 1">
<path id="Vector (Stroke)" fill-rule="evenodd" clip-rule="evenodd" d="M8.00033 2.66602C8.36852 2.66602 8.66699 2.96449 8.66699 3.33268V7.33268H12.667C13.0352 7.33268 13.3337 7.63116 13.3337 7.99935C13.3337 8.36754 13.0352 8.66602 12.667 8.66602H8.66699V12.666C8.66699 13.0342 8.36852 13.3327 8.00033 13.3327C7.63214 13.3327 7.33366 13.0342 7.33366 12.666V8.66602H3.33366C2.96547 8.66602 2.66699 8.36754 2.66699 7.99935C2.66699 7.63116 2.96547 7.33268 3.33366 7.33268H7.33366V3.33268C7.33366 2.96449 7.63214 2.66602 8.00033 2.66602Z" fill="#2A9AD6"/>
</g>
</svg>
