<svg xmlns="http://www.w3.org/2000/svg" width="20" height="20" viewBox="0 0 20 20" fill="none">
  <path fill-rule="evenodd" clip-rule="evenodd" d="M4.37533 1.66797C4.37533 1.32279 4.65515 1.04297 5.00033 1.04297H15.0003C15.3455 1.04297 15.6253 1.32279 15.6253 1.66797V6.8763H16.667C17.2748 6.8763 17.8577 7.11775 18.2874 7.54752C18.7172 7.97729 18.9587 8.56018 18.9587 9.16797V13.3346C18.9587 13.9424 18.7172 14.5253 18.2874 14.9551C17.8577 15.3849 17.2748 15.6263 16.667 15.6263H15.6253V18.3346C15.6253 18.6798 15.3455 18.9596 15.0003 18.9596H5.00033C4.65515 18.9596 4.37533 18.6798 4.37533 18.3346V15.6263H3.33366C2.72587 15.6263 2.14298 15.3849 1.71321 14.9551C1.28343 14.5253 1.04199 13.9424 1.04199 13.3346V9.16797C1.04199 8.56018 1.28343 7.97729 1.71321 7.54752C2.14298 7.11775 2.72587 6.8763 3.33366 6.8763H4.37533V1.66797ZM3.33366 8.1263C3.05739 8.1263 2.79244 8.23605 2.59709 8.4314C2.40174 8.62675 2.29199 8.8917 2.29199 9.16797V13.3346C2.29199 13.6109 2.40174 13.8759 2.59709 14.0712C2.79244 14.2666 3.05739 14.3763 3.33366 14.3763H4.37533V11.668C4.37533 11.3228 4.65515 11.043 5.00033 11.043H15.0003C15.3455 11.043 15.6253 11.3228 15.6253 11.668V14.3763H16.667C16.9433 14.3763 17.2082 14.2666 17.4036 14.0712C17.5989 13.8759 17.7087 13.6109 17.7087 13.3346V9.16797C17.7087 8.8917 17.5989 8.62675 17.4036 8.4314C17.2082 8.23605 16.9433 8.1263 16.667 8.1263H3.33366ZM14.3753 6.8763H5.62533V2.29297H14.3753V6.8763ZM14.3753 12.293H5.62533V17.7096H14.3753V12.293Z" fill="#2A9AD6"/>
</svg>