<svg width="20" height="20" viewBox="0 0 20 20" fill="none" xmlns="http://www.w3.org/2000/svg">
<g id="Icon/Reject">
<path id="Vector" fill-rule="evenodd" clip-rule="evenodd" d="M4.81742 3.95703C4.3444 3.95703 3.96094 4.34049 3.96094 4.81351V15.1839C3.96094 15.6569 4.3444 16.0404 4.81742 16.0404H15.1878C15.6608 16.0404 16.0443 15.6569 16.0443 15.1839V4.81351C16.0443 4.34049 15.6608 3.95703 15.1878 3.95703H4.81742ZM2.71094 4.81351C2.71094 3.65013 3.65404 2.70703 4.81742 2.70703H15.1878C16.3512 2.70703 17.2943 3.65013 17.2943 4.81351V15.1839C17.2943 16.3473 16.3512 17.2904 15.1878 17.2904H4.81742C3.65404 17.2904 2.71094 16.3473 2.71094 15.1839V4.81351ZM7.06066 7.05676C7.30474 6.81268 7.70047 6.81268 7.94455 7.05676L10.0026 9.11481L12.0607 7.05676C12.3047 6.81268 12.7005 6.81268 12.9445 7.05676C13.1886 7.30083 13.1886 7.69656 12.9445 7.94064L10.8865 9.9987L12.9445 12.0568C13.1886 12.3008 13.1886 12.6966 12.9445 12.9406C12.7005 13.1847 12.3047 13.1847 12.0607 12.9406L10.0026 10.8826L7.94455 12.9406C7.70047 13.1847 7.30474 13.1847 7.06066 12.9406C6.81658 12.6966 6.81658 12.3008 7.06066 12.0568L9.11872 9.9987L7.06066 7.94064C6.81658 7.69656 6.81658 7.30083 7.06066 7.05676Z" fill="#2A9AD6"/>
</g>
</svg>
