<svg xmlns="http://www.w3.org/2000/svg" width="20" height="20" viewBox="0 0 20 20" fill="none">
  <path d="M9.98284 17.0846C8.16982 17.0846 6.59504 16.4892 5.25851 15.2985C4.10345 14.2695 3.3717 13.0185 3.06325 11.5454C2.98461 11.1698 3.28546 10.8346 3.66922 10.8346C3.98828 10.8346 4.25531 11.0698 4.32841 11.3804C4.61035 12.5781 5.2246 13.5893 6.17116 14.4139C7.25823 15.3611 8.52879 15.8346 9.98284 15.8346C11.6078 15.8346 12.9863 15.2686 14.1183 14.1367C15.2502 13.0048 15.8162 11.6263 15.8162 10.0013C15.8162 8.37628 15.2502 6.99781 14.1183 5.86587C12.9863 4.73392 11.6078 4.16795 9.98284 4.16795C9.07259 4.16795 8.2195 4.37014 7.42355 4.77451C6.62762 5.17889 5.94226 5.73524 5.36747 6.44357H6.92196C7.26713 6.44357 7.54695 6.72339 7.54695 7.06856C7.54695 7.41374 7.26713 7.69355 6.92196 7.69355H3.81624C3.5401 7.69355 3.31624 7.4697 3.31624 7.19355V4.0878C3.31624 3.74264 3.59605 3.46282 3.94122 3.46282C4.28638 3.46282 4.5662 3.74264 4.5662 4.0878V5.4372C5.24248 4.63913 6.0523 4.01974 6.99568 3.57903C7.93905 3.13832 8.93477 2.91797 9.98284 2.91797C10.9661 2.91797 11.8872 3.10387 12.7459 3.47568C13.6047 3.84747 14.3535 4.3528 14.9924 4.99168C15.6313 5.63057 16.1367 6.37934 16.5084 7.23801C16.8802 8.09668 17.0661 9.01762 17.0661 10.0008C17.0661 10.984 16.8802 11.9051 16.5084 12.7641C16.1367 13.6231 15.6313 14.372 14.9924 15.0109C14.3535 15.6498 13.6047 16.1551 12.7459 16.5269C11.8872 16.8987 10.9661 17.0846 9.98284 17.0846Z" fill="#2A9AD6"/>
</svg>