<svg width="20" height="20" viewBox="0 0 20 20" fill="none" xmlns="http://www.w3.org/2000/svg">
<g id="Icon/transfer">
<path id="Vector" fill-rule="evenodd" clip-rule="evenodd" d="M13.7273 1.46284C13.9714 1.21877 14.3671 1.21877 14.6112 1.46284L17.7065 4.55808C17.9505 4.80216 17.9505 5.19789 17.7065 5.44196L14.6112 8.5372C14.3671 8.78128 13.9714 8.78128 13.7273 8.5372C13.4833 8.29313 13.4833 7.8974 13.7273 7.65332L15.7556 5.62502H6.43118C5.77603 5.62502 5.14771 5.88528 4.68445 6.34854C4.22119 6.8118 3.96094 7.44011 3.96094 8.09526V9.64288C3.96094 9.98806 3.68112 10.2679 3.33594 10.2679C2.99076 10.2679 2.71094 9.98806 2.71094 9.64288V8.09526C2.71094 7.10859 3.10289 6.16234 3.80057 5.46466C4.49825 4.76698 5.44451 4.37502 6.43118 4.37502H15.7556L13.7273 2.34673C13.4833 2.10265 13.4833 1.70692 13.7273 1.46284ZM16.6395 12.7381V11.1905C16.6395 10.8453 16.9193 10.5655 17.2645 10.5655C17.6097 10.5655 17.8895 10.8453 17.8895 11.1905V12.7381C17.8895 13.7248 17.4976 14.671 16.7999 15.3687C16.1022 16.0664 15.1559 16.4584 14.1693 16.4584H4.84482L6.87312 18.4867C7.11719 18.7307 7.11719 19.1265 6.87312 19.3705C6.62904 19.6146 6.23331 19.6146 5.98923 19.3705L2.894 16.2753C2.64992 16.0312 2.64992 15.6355 2.894 15.3914L5.98923 12.2962C6.23331 12.0521 6.62904 12.0521 6.87312 12.2962C7.11719 12.5403 7.11719 12.936 6.87312 13.1801L4.84482 15.2084H14.1693C14.8244 15.2084 15.4527 14.9481 15.916 14.4848C16.3793 14.0216 16.6395 13.3933 16.6395 12.7381Z" fill="#2A9AD6"/>
</g>
</svg>
