<svg width="64" height="64" viewBox="0 0 64 64" fill="none" xmlns="http://www.w3.org/2000/svg">
<g id="Icon/upload">
<path id="Vector" fill-rule="evenodd" clip-rule="evenodd" d="M30.5858 6.58579C31.3668 5.80474 32.6332 5.80474 33.4142 6.58579L46.7475 19.9191C47.5286 20.7002 47.5286 21.9665 46.7475 22.7475C45.9665 23.5286 44.7002 23.5286 43.9191 22.7475L34 12.8284V40C34 41.1046 33.1046 42 32 42C30.8954 42 30 41.1046 30 40V12.8284L20.0809 22.7475C19.2998 23.5286 18.0335 23.5286 17.2525 22.7475C16.4714 21.9665 16.4714 20.7002 17.2525 19.9191L30.5858 6.58579ZM8 38C9.10457 38 10 38.8954 10 40V50.6667C10 51.5507 10.3512 52.3986 10.9763 53.0237C11.6014 53.6488 12.4493 54 13.3333 54H50.6667C51.5507 54 52.3986 53.6488 53.0237 53.0237C53.6488 52.3986 54 51.5507 54 50.6667V40C54 38.8954 54.8954 38 56 38C57.1046 38 58 38.8954 58 40V50.6667C58 52.6116 57.2274 54.4768 55.8521 55.8521C54.4768 57.2274 52.6116 58 50.6667 58H13.3333C11.3884 58 9.52315 57.2274 8.14788 55.8521C6.77262 54.4768 6 52.6116 6 50.6667V40C6 38.8954 6.89543 38 8 38Z" fill="#848484"/>
</g>
</svg>
