<svg width="298" height="298" viewBox="0 0 298 298" fill="none" xmlns="http://www.w3.org/2000/svg">
<path fill-rule="evenodd" clip-rule="evenodd" d="M53.9407 109.166L16.6907 169.697C15.806 171.131 15.7688 172.938 16.5929 174.409C17.4171 175.881 18.9723 176.793 20.6578 176.793H62.5641C65.1343 176.793 67.2203 174.707 67.2203 172.137C67.2203 169.567 65.1343 167.481 62.5641 167.481H28.9925L61.875 114.046C63.2206 111.857 62.5361 108.989 60.3477 107.639C58.1593 106.293 55.291 106.978 53.9407 109.166Z" fill="url(#paint0_linear_4487_84970)"/>
<path fill-rule="evenodd" clip-rule="evenodd" d="M57.9082 148.855V214.043C57.9082 216.613 59.9942 218.699 62.5645 218.699C65.1347 218.699 67.2207 216.613 67.2207 214.043V148.855C67.2207 146.285 65.1347 144.199 62.5645 144.199C59.9942 144.199 57.9082 146.285 57.9082 148.855Z" fill="url(#paint1_linear_4487_84970)"/>
<path fill-rule="evenodd" clip-rule="evenodd" d="M268.128 109.166L230.878 169.697C229.994 171.131 229.956 172.938 230.78 174.409C231.605 175.881 233.16 176.793 234.845 176.793H276.752C279.322 176.793 281.408 174.707 281.408 172.137C281.408 169.567 279.322 167.481 276.752 167.481H243.18L276.062 114.046C277.408 111.857 276.724 108.989 274.535 107.639C272.347 106.293 269.479 106.978 268.128 109.166Z" fill="url(#paint2_linear_4487_84970)"/>
<path fill-rule="evenodd" clip-rule="evenodd" d="M272.096 148.855V214.043C272.096 216.613 274.182 218.699 276.752 218.699C279.322 218.699 281.408 216.613 281.408 214.043V148.855C281.408 146.285 279.322 144.199 276.752 144.199C274.182 144.199 272.096 146.285 272.096 148.855Z" fill="url(#paint3_linear_4487_84970)"/>
<path fill-rule="evenodd" clip-rule="evenodd" d="M89.3374 147.004C94.9016 143.792 104.112 149.314 109.895 159.33C115.678 169.345 115.855 180.082 110.291 183.295C104.726 186.508 95.5162 180.986 89.7332 170.97C83.9501 160.955 83.7732 150.217 89.3374 147.004Z" fill="url(#paint4_linear_4487_84970)"/>
<path fill-rule="evenodd" clip-rule="evenodd" d="M210.926 148.985C205.967 144.897 195.97 148.822 188.613 157.748C181.256 166.67 179.31 177.23 184.264 181.318C189.223 185.407 199.22 181.481 206.577 172.555C213.934 163.634 215.88 153.074 210.926 148.985Z" fill="url(#paint5_linear_4487_84970)"/>
<path fill-rule="evenodd" clip-rule="evenodd" d="M153.361 92.0067C178.524 92.4258 201.814 113.942 199.924 152.538C198.76 176.229 184.088 182.692 175.953 208.408C171.986 220.952 171.577 233.617 171.721 240.471C171.781 241.822 171.251 243.13 170.268 244.052C169.286 244.979 167.945 245.43 166.604 245.286C136.319 240.807 97.4863 200.628 97.4863 161.85C97.4863 120.731 122.528 91.4899 153.361 92.0067Z" fill="url(#paint6_linear_4487_84970)"/>
<path fill-rule="evenodd" clip-rule="evenodd" d="M100.196 180.15C98.4502 174.106 97.4863 167.964 97.4863 161.85C97.4863 120.731 122.528 91.4899 153.361 92.0067C172.424 92.3234 190.416 104.751 197.191 127.539C193.591 162.735 166.301 190.137 133.218 190.137C121.149 190.137 109.853 186.487 100.196 180.15Z" fill="url(#paint7_linear_4487_84970)"/>
<path d="M148.705 172.137C153.848 172.137 158.018 165.883 158.018 158.168C158.018 150.453 153.848 144.199 148.705 144.199C143.562 144.199 139.393 150.453 139.393 158.168C139.393 165.883 143.562 172.137 148.705 172.137Z" fill="url(#paint8_linear_4487_84970)"/>
<path fill-rule="evenodd" clip-rule="evenodd" d="M134.559 126.188C135.402 129.271 135.453 134.5 130.848 137.615C129.782 138.332 129.503 139.78 130.22 140.846C130.941 141.912 132.389 142.192 133.451 141.47C140.142 136.954 140.272 129.438 139.053 124.964C138.713 123.721 137.432 122.989 136.194 123.329C134.955 123.665 134.224 124.945 134.559 126.188Z" fill="url(#paint9_linear_4487_84970)"/>
<path fill-rule="evenodd" clip-rule="evenodd" d="M158.357 124.964C157.137 129.438 157.268 136.954 163.959 141.47C165.02 142.192 166.468 141.912 167.19 140.846C167.907 139.78 167.628 138.332 166.562 137.615C161.957 134.5 162.008 129.271 162.851 126.188C163.186 124.945 162.455 123.665 161.216 123.329C159.978 122.989 158.697 123.721 158.357 124.964Z" fill="url(#paint10_linear_4487_84970)"/>
<ellipse cx="157.705" cy="263.836" rx="60" ry="11" fill="#EAF5FB"/>
<defs>
<linearGradient id="paint0_linear_4487_84970" x1="22.5529" y1="124.043" x2="73.3852" y2="217.186" gradientUnits="userSpaceOnUse">
<stop stop-color="#258CC2"/>
<stop offset="1" stop-color="#2A9AD6"/>
</linearGradient>
<linearGradient id="paint1_linear_4487_84970" x1="22.5533" y1="124.042" x2="73.3856" y2="217.186" gradientUnits="userSpaceOnUse">
<stop stop-color="#0573AE"/>
<stop offset="1" stop-color="#2A9AD6"/>
</linearGradient>
<linearGradient id="paint2_linear_4487_84970" x1="229.98" y1="121.114" x2="287.484" y2="218.7" gradientUnits="userSpaceOnUse">
<stop stop-color="#2A9AD6"/>
<stop offset="1" stop-color="#2A9AD6"/>
</linearGradient>
<linearGradient id="paint3_linear_4487_84970" x1="229.98" y1="121.114" x2="287.485" y2="218.699" gradientUnits="userSpaceOnUse">
<stop stop-color="#0573AE"/>
<stop offset="1" stop-color="#2A9AD6"/>
</linearGradient>
<linearGradient id="paint4_linear_4487_84970" x1="83.1399" y1="150.953" x2="109.327" y2="176.623" gradientUnits="userSpaceOnUse">
<stop stop-color="#A4BBDB"/>
<stop offset="1" stop-color="#8DA3BE"/>
</linearGradient>
<linearGradient id="paint5_linear_4487_84970" x1="220.825" y1="154.126" x2="181.564" y2="175.489" gradientUnits="userSpaceOnUse">
<stop stop-color="#A4BBDB"/>
<stop offset="1" stop-color="#8DA3BE"/>
</linearGradient>
<linearGradient id="paint6_linear_4487_84970" x1="97.4863" y1="168.653" x2="200.031" y2="168.653" gradientUnits="userSpaceOnUse">
<stop stop-color="#CADCF0"/>
<stop offset="1" stop-color="#A4BBDB"/>
</linearGradient>
<linearGradient id="paint7_linear_4487_84970" x1="109.369" y1="117.56" x2="197.191" y2="127.539" gradientUnits="userSpaceOnUse">
<stop stop-color="#E9F3FC"/>
<stop offset="1" stop-color="#CADCF0"/>
</linearGradient>
<linearGradient id="paint8_linear_4487_84970" x1="128.837" y1="124.769" x2="170.939" y2="172.519" gradientUnits="userSpaceOnUse">
<stop stop-color="#738BAB"/>
<stop offset="1" stop-color="#526B8F"/>
</linearGradient>
<linearGradient id="paint9_linear_4487_84970" x1="128.837" y1="124.768" x2="170.939" y2="172.518" gradientUnits="userSpaceOnUse">
<stop stop-color="#738BAB"/>
<stop offset="1" stop-color="#526B8F"/>
</linearGradient>
<linearGradient id="paint10_linear_4487_84970" x1="128.837" y1="124.768" x2="170.938" y2="172.518" gradientUnits="userSpaceOnUse">
<stop stop-color="#738BAB"/>
<stop offset="1" stop-color="#526B8F"/>
</linearGradient>
</defs>
</svg>
