<svg width="375" height="204" viewBox="0 0 375 204" fill="none" xmlns="http://www.w3.org/2000/svg">
<rect width="50.3966" height="37.4059" rx="5" transform="matrix(0.635394 0.772188 -0.771985 0.635641 129.387 186.527)" fill="#2A9AD6" fill-opacity="0.04"/>
<path opacity="0.1" fill-rule="evenodd" clip-rule="evenodd" d="M72.8474 294.724C55.9324 308.909 30.7281 306.705 16.5316 289.799L-78.252 176.931C-92.4689 160.001 -90.2605 134.745 -73.3211 120.539L39.606 25.8396C56.521 11.6548 81.7253 13.8586 95.9218 30.7639L190.705 143.633C204.922 160.562 202.714 185.819 185.775 200.024L72.8474 294.724Z" fill="#55AEDE"/>
<path opacity="0.06" fill-rule="evenodd" clip-rule="evenodd" d="M199.268 413.129C182.353 427.314 157.149 425.11 142.952 408.205L21.2073 263.231C6.99037 246.301 9.19883 221.045 26.1382 206.839L171.188 85.2015C188.103 71.0167 213.307 73.2205 227.504 90.1258L349.249 235.1C363.466 252.03 361.257 277.286 344.318 291.491L199.268 413.129Z" fill="#55AEDE"/>
</svg>
