<svg width="452" height="369" viewBox="0 0 452 369" fill="none" xmlns="http://www.w3.org/2000/svg">
<rect width="70.8863" height="52.6163" rx="5" transform="matrix(0.635482 0.772115 -0.772058 0.635552 115.595 311.912)" fill="#2A9AD6" fill-opacity="0.04"/>
<path opacity="0.1" fill-rule="evenodd" clip-rule="evenodd" d="M30.6413 472.095C13.7246 486.278 -11.4825 484.074 -25.681 467.17L-179.939 283.522C-194.158 266.594 -191.95 241.34 -175.009 227.137L8.78144 73.048C25.6982 58.865 50.9052 61.0692 65.1037 77.9728L219.362 261.621C233.58 278.549 231.372 303.803 214.431 318.006L30.6413 472.095Z" fill="#55AEDE"/>
<path opacity="0.1" fill-rule="evenodd" clip-rule="evenodd" d="M188.866 101.573C180.407 108.664 167.804 107.562 160.704 99.1101L134.361 67.7471C127.251 59.2831 128.355 46.6564 136.826 39.5547L168.213 13.2398C176.671 6.14832 189.275 7.25038 196.374 15.7022L222.718 47.0652C229.827 55.5292 228.723 68.156 220.253 75.2576L188.866 101.573Z" fill="#55AEDE"/>
<path opacity="0.06" fill-rule="evenodd" clip-rule="evenodd" d="M191.606 641.053C174.689 655.236 149.482 653.031 135.284 636.128L-56.9024 407.325C-71.1212 390.397 -68.9131 365.144 -51.9721 350.94L177.007 158.965C193.924 144.782 219.131 146.986 233.33 163.89L425.516 392.692C439.734 409.62 437.526 434.874 420.585 449.077L191.606 641.053Z" fill="#55AEDE"/>
</svg>
