<svg width="120" height="80" viewBox="0 0 120 80" fill="none" xmlns="http://www.w3.org/2000/svg">
<g id="emergency 1" clip-path="url(#clip0_3633_33296)">
<ellipse id="Ellipse 1552" cx="60" cy="69.3008" rx="60" ry="11" fill="#FDF1E6"/>
<g id="Group 9491">
<path id="Vector 12" d="M28.2135 53.9028L51.3103 13.0148L54.5777 7.83843C55.1434 6.94218 55.9793 6.24888 56.9647 5.85861L57.745 5.54954C58.9278 5.08109 60.2446 5.08109 61.4274 5.54954L62.1093 5.81961C63.1552 6.23386 64.0308 6.98873 64.5947 7.96218L91.5342 54.4715C93.4907 57.8493 90.995 62.0662 87.0925 61.9763L60.4138 61.362H32.567C28.7388 61.362 26.3307 57.2359 28.2135 53.9028Z" fill="#FDF1E6"/>
<path id="Vector 11" d="M32.2754 56.4427L59.5857 9.73438L86.8961 56.4427H32.2754Z" fill="white"/>
<ellipse id="Ellipse 1553" cx="59.5848" cy="48.2504" rx="3.31034" ry="3.27778" fill="#FDF1E6"/>
<rect id="Rectangle 143079" x="57.9326" y="25.3047" width="3.31034" height="16.3889" fill="#FDF1E6"/>
<path id="Vector" d="M91.8139 52.6237L65.7298 7.45192C63.0725 2.84987 56.1504 2.84885 53.4924 7.45192L52.0579 9.93619C51.4568 10.977 53.1169 11.9714 53.745 10.8832L55.1795 8.39903C57.1024 5.06884 62.1197 5.06897 64.0426 8.39903L90.1268 53.5707C92.0368 56.8785 89.5375 61.086 85.6952 61.086H33.5273C29.6849 61.086 27.1857 56.8785 29.0956 53.5707L51.2183 15.2588C51.8194 14.2181 50.1597 13.2238 49.5312 14.3119L27.4084 52.6237C24.7805 57.1746 28.2308 63 33.5271 63H85.6951C90.9913 63.0001 94.4423 57.1755 91.8139 52.6237Z" fill="#E66F00"/>
<path id="Vector_2" d="M82.4392 48.2551C82.9051 47.9937 83.0677 47.4093 82.8025 46.9498L61.3736 9.83993C60.6077 8.50745 58.5757 8.49622 57.8018 9.83661L31.7184 55.0072C30.9568 56.3229 31.9527 58.0418 33.5022 58.0418H85.6711C87.2093 58.0418 88.2201 56.3335 87.4561 55.0091L85.346 51.355C84.745 50.3139 83.0304 51.2138 83.6589 52.3019L85.7687 55.9557C85.8193 56.0435 85.7511 56.1275 85.6711 56.1275H33.5023C33.4223 56.1275 33.3539 56.0437 33.4051 55.9551L59.4889 10.7837C59.5357 10.7026 59.6393 10.7054 59.6854 10.7852L81.1154 47.8971C81.3806 48.3562 81.9734 48.5166 82.4392 48.2551Z" fill="#E66F00"/>
<path id="Vector_3" d="M63.1422 27.3861C63.1422 25.4328 61.5468 23.8438 59.5857 23.8438C57.6246 23.8438 56.0293 25.4328 56.0293 27.3861V39.5089C56.0293 41.4622 57.6246 43.0513 59.5857 43.0513C61.5468 43.0513 63.1422 41.4622 63.1422 39.5089V27.3861ZM61.2007 39.5089C61.2007 40.4067 60.4762 41.1372 59.5857 41.1372C58.6953 41.1372 57.9707 40.4067 57.9707 39.5089V27.3861C57.9707 26.4883 58.6953 25.7579 59.5857 25.7579C60.4762 25.7579 61.2007 26.4883 61.2007 27.3861V39.5089Z" fill="#E66F00"/>
<path id="Vector_4" d="M59.5857 44.7812C57.6248 44.7812 56.0293 46.3704 56.0293 48.3236C56.0293 50.2769 57.6246 51.866 59.5857 51.866C61.5468 51.866 63.1422 50.2769 63.1422 48.3236C63.1422 46.3704 61.5467 44.7812 59.5857 44.7812ZM59.5857 49.9518C58.6953 49.9518 57.9707 49.2214 57.9707 48.3235C57.9707 47.4257 58.6953 46.6952 59.5857 46.6952C60.4762 46.6952 61.2007 47.4257 61.2007 48.3235C61.2007 49.2214 60.4762 49.9518 59.5857 49.9518Z" fill="#E66F00"/>
<path id="Vector_5" d="M79.6393 20.5332C82.8923 21.2613 84.9645 24.4664 84.2583 27.6782C84.0053 28.8301 85.8746 29.3621 86.1557 28.0837C87.0862 23.8505 84.3558 19.626 80.069 18.6666C78.8846 18.4006 78.4008 20.256 79.6393 20.5332Z" fill="#E66F00"/>
<path id="Vector_6" d="M80.9693 15.1974C87.1394 16.5781 91.0695 22.6576 89.7301 28.7496C89.477 29.9014 91.3464 30.4337 91.6275 29.1551C93.1915 22.0416 88.603 14.9428 81.399 13.3308C80.2146 13.0644 79.7309 14.9201 80.9693 15.1974Z" fill="#E66F00"/>
<path id="Vector_7" d="M33.016 28.082C33.2783 29.275 35.1796 28.888 34.9134 27.6765C34.2074 24.4648 36.2795 21.2596 39.5324 20.5314C40.717 20.2663 40.3408 18.3862 39.1027 18.6648C34.8159 19.6243 32.0854 23.8487 33.016 28.082Z" fill="#E66F00"/>
<path id="Vector_8" d="M28.4919 29.9077C29.098 29.9077 29.5715 29.3389 29.4415 28.7477C28.1021 22.6557 32.0323 16.5762 38.2023 15.1955C39.3868 14.9303 39.0107 13.0503 37.7726 13.3289C30.5686 14.9409 25.9802 22.0397 27.5441 29.1532C27.6427 29.6015 28.0449 29.9077 28.4919 29.9077Z" fill="#E66F00"/>
</g>
</g>
<defs>
<clipPath id="clip0_3633_33296">
<rect width="120" height="80" fill="white"/>
</clipPath>
</defs>
</svg>
