<svg width="120" height="80" viewBox="0 0 120 80" fill="none" xmlns="http://www.w3.org/2000/svg">
<ellipse cx="60" cy="69" rx="60" ry="11" fill="#EAF5FB"/>
<path d="M90.0729 34.1015C90.0729 50.7024 76.6155 64.1601 60.015 64.1601C43.4144 64.1601 29.957 50.7024 29.957 34.1015C29.957 17.5006 43.4144 4.04297 60.015 4.04297C76.6155 4.04297 90.0729 17.5006 90.0729 34.1015Z" fill="#EAF5FB" stroke="#2A9AD6" stroke-width="2"/>
<circle cx="60" cy="34" r="24" fill="white"/>
<path d="M77.2884 50.7109C68.0589 60.259 52.8365 60.5173 43.2884 51.2877C33.7403 42.0582 33.482 26.8359 42.7116 17.2877C51.9411 7.73961 67.1635 7.48135 76.7116 16.7109C80.6592 20.5268 83.0189 25.3671 83.7765 30.4072C83.7765 30.4072 84.1497 34.9695 83.7507 37.8476C83.4821 39.7845 82.6188 42.7253 82.6188 42.7253" stroke="#2A9AD6" stroke-width="2" stroke-linecap="round"/>
<path d="M63 45V33C63 31.3431 61.6569 30 60 30C58.3431 30 57 31.3431 57 33V45C57 46.6569 58.3431 48 60 48C61.6569 48 63 46.6569 63 45Z" fill="#EAF5FB" stroke="#2A9AD6" stroke-width="1.7"/>
<circle cx="60" cy="22" r="3.15" fill="#EAF5FB" stroke="#2A9AD6" stroke-width="1.7"/>
</svg>
