<svg width="120" height="80" viewBox="0 0 120 80" fill="none" xmlns="http://www.w3.org/2000/svg">
<g id="delete 1" clip-path="url(#clip0_2643_12421)">
<ellipse id="Ellipse 1551" cx="60" cy="68.8906" rx="60" ry="11" fill="#FDECEC"/>
<g id="Group">
<path id="Vector 10" d="M76.765 54.8394H45.1699V63.0653L47.3489 65.8073H74.0413L76.765 63.0653V54.8394Z" fill="white"/>
<path id="Vector 7" d="M47.3491 26.8708L48.9834 25.2256H50.6176L51.7071 26.8708L53.886 58.1292L53.3413 60.3228L51.1623 60.8712L50.0728 60.3228L48.9834 58.6776L47.3491 26.8708Z" fill="#FDECEC"/>
<path id="Vector 8" d="M57.9037 26.8704L59.5738 25.2621L61.2076 25.2986L62.2606 26.9677L63.7503 58.2671L63.1573 60.448L60.9668 60.9476L59.8897 60.375L58.8367 58.7059L57.9037 26.8704Z" fill="#FDECEC"/>
<path id="Vector 9" d="M69.9118 26.8517L71.7754 25.4756L73.3907 25.7255L74.2192 27.5183L71.6548 58.7471L70.7853 60.8319L68.5489 61.0406L67.5548 60.3319L66.7263 58.5392L69.9118 26.8517Z" fill="#FDECEC"/>
<path id="Vector" d="M75.6487 18.2275H45.6747C42.9868 18.2275 40.8453 20.5085 40.9979 23.2108L43.1695 61.6613C43.3701 65.2156 46.2975 67.9997 49.8338 67.9997H71.4893C75.0257 67.9997 77.9529 65.2156 78.1537 61.6613L80.3253 23.2108C80.4782 20.5091 78.3374 18.2275 75.6487 18.2275ZM77.6911 23.0602L75.5194 61.5107C75.398 63.66 73.6279 65.3435 71.4895 65.3435H49.8339C47.6954 65.3435 45.9254 63.6599 45.804 61.5107L43.6324 23.0602C43.5659 21.8822 44.4935 20.8838 45.6748 20.8838H75.6488C76.8234 20.8838 77.7581 21.8753 77.6911 23.0602Z" fill="#EA4343"/>
<path id="Vector_2" d="M80.3036 9.14633L79.918 6.8719C79.5136 4.48696 77.2691 2.8851 74.899 3.29257L65.2977 4.94225L64.9131 2.67445C64.6167 0.9245 62.9695 -0.25276 61.2282 0.046469L53.7787 1.32653C52.0393 1.62509 50.8711 3.28447 51.168 5.03615L51.5526 7.30407L41.9514 8.95375C39.582 9.36083 37.9914 11.6208 38.3958 14.0065L38.7814 16.281C38.9044 17.0057 39.5881 17.49 40.3039 17.3667L79.2249 10.679C79.9434 10.5556 80.4263 9.86937 80.3036 9.14633ZM53.7693 4.5891C53.7178 4.28548 53.9205 3.99675 54.2227 3.94482C54.9954 3.812 60.7391 2.8252 61.6725 2.66476C61.9744 2.6127 62.2608 2.81723 62.3124 3.12124L62.697 5.38903C61.8229 5.53925 54.9821 6.71465 54.1539 6.85702L53.7693 4.5891ZM41.1607 14.5248L40.9971 13.5595C40.838 12.6213 41.4634 11.7323 42.3956 11.572C77.7249 5.50166 75.4078 5.88589 75.6348 5.88589C76.4444 5.88589 77.1736 6.47173 77.3172 7.31882L77.4808 8.28411L41.1607 14.5248Z" fill="#EA4343"/>
<path id="Vector_3" d="M60.662 23.2715C58.5968 23.2715 56.9165 24.963 56.9165 27.0422V28.9541C56.9165 29.6874 57.5072 30.2822 58.2358 30.2822C58.9644 30.2822 59.5551 29.6874 59.5551 28.9541V27.0422C59.5551 26.4277 60.0517 25.9278 60.662 25.9278C61.2724 25.9278 61.769 26.4277 61.769 27.0422V58.7155C61.769 59.3299 61.2724 59.8298 60.662 59.8298C60.0517 59.8298 59.5551 59.3299 59.5551 58.7155V39.579C59.5551 38.8456 58.9643 38.2509 58.2358 38.2509C57.5073 38.2509 56.9165 38.8456 56.9165 39.579V58.7153C56.9165 60.7944 58.5968 62.4859 60.662 62.4859C62.7272 62.4859 64.4076 60.7945 64.4076 58.7153V27.0422C64.4075 24.963 62.7272 23.2715 60.662 23.2715Z" fill="#EA4343"/>
<path id="Vector_4" d="M53.3599 26.8578C53.2457 24.7762 51.4765 23.1836 49.4137 23.301C47.3468 23.4156 45.7662 25.1924 45.8803 27.2736L47.6147 58.8987C47.7984 62.2486 51.9306 63.6958 54.1449 61.2059C54.8123 60.4557 55.1494 59.4885 55.0943 58.4828L53.3599 26.8578ZM51.4157 59.8035C50.8078 59.8324 50.2831 59.3658 50.2494 58.7522L48.5151 27.1272C48.4813 26.5123 48.9482 25.9873 49.5593 25.9532C49.5803 25.952 49.601 25.9514 49.6218 25.9514C50.2039 25.9514 50.6928 26.4093 50.7256 27.0043L52.46 58.6293C52.4936 59.2441 52.0268 59.7694 51.4157 59.8035Z" fill="#EA4343"/>
<path id="Vector_5" d="M71.9101 23.3026C69.8462 23.1889 68.0777 24.7833 67.9638 26.8595L66.2295 58.4845C66.1743 59.4901 66.5115 60.4572 67.1787 61.2075C69.3954 63.7001 73.5257 62.2395 73.7089 58.9001L75.4433 27.2752C75.5575 25.1944 73.9772 23.4172 71.9101 23.3026ZM72.8089 27.1287L71.0746 58.7536C71.0408 59.3672 70.5137 59.8329 69.9082 59.805C69.2972 59.7709 68.8303 59.2458 68.864 58.6309L70.5983 27.0058C70.6309 26.4131 71.1202 25.9529 71.7028 25.9529C72.339 25.953 72.8439 26.4892 72.8089 27.1287Z" fill="#EA4343"/>
<path id="Vector_6" d="M58.2358 35.5973C58.9645 35.5973 59.5551 35.0026 59.5551 34.2692V34.2659C59.5551 33.5325 58.9645 32.9395 58.2358 32.9395C57.5072 32.9395 56.9165 33.5358 56.9165 34.2693C56.9165 35.0029 57.5073 35.5973 58.2358 35.5973Z" fill="#EA4343"/>
</g>
</g>
<defs>
<clipPath id="clip0_2643_12421">
<rect width="120" height="80" fill="white"/>
</clipPath>
</defs>
</svg>
