<svg width="24" height="24" viewBox="0 0 24 24" fill="none" xmlns="http://www.w3.org/2000/svg">
<g id="Icon/alert-triangle">
<path id="Vector" fill-rule="evenodd" clip-rule="evenodd" d="M10.6516 2.50094C11.0635 2.26907 11.5281 2.14726 12.0008 2.14726C12.4734 2.14726 12.938 2.26907 13.3499 2.50094C13.7617 2.73282 14.1069 3.06693 14.352 3.47103L14.3542 3.47459L22.8303 17.6249C23.0704 18.0407 23.1974 18.5122 23.1988 18.9924C23.2001 19.4726 23.0757 19.9448 22.8379 20.3619C22.6001 20.7791 22.2572 21.1267 21.8434 21.3702C21.4296 21.6138 20.9591 21.7447 20.479 21.75L20.4708 21.75L3.52251 21.75C3.04236 21.7447 2.57196 21.6138 2.15811 21.3702C1.74426 21.1267 1.40138 20.7791 1.1636 20.3619C0.92581 19.9448 0.801401 19.4726 0.802745 18.9924C0.80409 18.5122 0.931142 18.0408 1.17126 17.625L1.17727 17.6145L9.64735 3.4746L9.6495 3.47103C9.89463 3.06693 10.2398 2.73282 10.6516 2.50094ZM12.0008 3.64726C11.7859 3.64726 11.5747 3.70263 11.3875 3.80802C11.2008 3.91312 11.0443 4.06442 10.933 4.2474C10.9326 4.24793 10.9323 4.24845 10.932 4.24897L2.46759 18.3797C2.36016 18.5675 2.30335 18.7801 2.30274 18.9966C2.30213 19.2149 2.35868 19.4295 2.46676 19.6191C2.57485 19.8087 2.7307 19.9668 2.91881 20.0775C3.10587 20.1875 3.31835 20.247 3.53532 20.25H20.4662C20.6832 20.247 20.8956 20.1875 21.0827 20.0775C21.2708 19.9668 21.4267 19.8087 21.5347 19.6191C21.6428 19.4295 21.6994 19.2149 21.6988 18.9966C21.6982 18.7801 21.6413 18.5676 21.5339 18.3797L13.0695 4.24897C13.0692 4.24845 13.0689 4.24793 13.0686 4.2474C12.9572 4.06442 12.8007 3.91312 12.614 3.80802C12.4268 3.70263 12.2156 3.64726 12.0008 3.64726ZM12.0008 8.25C12.415 8.25 12.7508 8.58579 12.7508 9V13C12.7508 13.4142 12.415 13.75 12.0008 13.75C11.5865 13.75 11.2508 13.4142 11.2508 13V9C11.2508 8.58579 11.5865 8.25 12.0008 8.25ZM11.2508 17C11.2508 16.5858 11.5865 16.25 12.0008 16.25H12.0108C12.425 16.25 12.7608 16.5858 12.7608 17C12.7608 17.4142 12.425 17.75 12.0108 17.75H12.0008C11.5865 17.75 11.2508 17.4142 11.2508 17Z" fill="#EA4343"/>
</g>
</svg>
