<svg width="24" height="24" viewBox="0 0 24 24" fill="none" xmlns="http://www.w3.org/2000/svg">
<g id="Icon/check-circle">
<path id="Vector" fill-rule="evenodd" clip-rule="evenodd" d="M15.7648 3.54507C13.9427 2.73324 11.9071 2.53211 9.96148 2.97171C8.01583 3.4113 6.2644 4.46806 4.96841 5.98437C3.67242 7.50068 2.9013 9.3953 2.77005 11.3857C2.63881 13.376 3.15447 15.3555 4.24014 17.0289C5.32581 18.7022 6.92331 19.9798 8.79439 20.6711C10.6655 21.3623 12.7099 21.4302 14.6227 20.8647C16.5355 20.2991 18.2143 19.1304 19.4086 17.5328C20.603 15.9351 21.2489 13.9943 21.25 11.9996V11.08C21.25 10.6658 21.5858 10.33 22 10.33C22.4142 10.33 22.75 10.6658 22.75 11.08V12C22.7487 14.3182 21.998 16.5742 20.61 18.4309C19.222 20.2876 17.271 21.6458 15.048 22.3031C12.825 22.9604 10.4491 22.8815 8.27456 22.0781C6.10006 21.2747 4.2435 19.79 2.98178 17.8453C1.72006 15.9006 1.12078 13.6001 1.2733 11.287C1.42583 8.97384 2.322 6.77198 3.82815 5.00978C5.3343 3.24759 7.36974 2.01947 9.6309 1.50859C11.8921 0.997709 14.2578 1.23144 16.3753 2.17493C16.7536 2.34352 16.9237 2.7869 16.7551 3.16525C16.5865 3.54361 16.1431 3.71366 15.7648 3.54507ZM22.5301 3.46941C22.8231 3.76215 22.8233 4.23703 22.5306 4.53007L12.5306 14.5401C12.39 14.6808 12.1992 14.76 12.0002 14.76C11.8012 14.7601 11.6104 14.681 11.4697 14.5403L8.46968 11.5403C8.17678 11.2474 8.17678 10.7726 8.46968 10.4797C8.76257 10.1868 9.23744 10.1868 9.53034 10.4797L11.9997 12.9491L21.4694 3.46994C21.7622 3.1769 22.237 3.17666 22.5301 3.46941Z" fill="#00A811"/>
</g>
</svg>
